<svg xmlns="http://www.w3.org/2000/svg" viewBox="0 0 75.21 7.21"><path d="M3.76,17.05c-.56-.6-1.27-1.37-3.18-3.62.8-.39.18-1,3.89-3.31l.09.08A42.18,42.18,0,0,1,1.4,13.63l.31.37c.67,1.13,1.57,1.8,2.19,3Z" transform="translate(-0.23 -9.87)"/><path d="M3.75,17.09A30.14,30.14,0,0,1,.34,13.64l0,0a.29.29,0,0,1,0-.4.19.19,0,0,1,.1,0c.27-.08.5-.47.82-.8a13.12,13.12,0,0,1,1-.85L4.34,9.92a.2.2,0,0,1,.24,0l0,0,.1.07a.24.24,0,0,1,.07.33l0,0,0,0c-.19.23-.43.62-.68.92s-.5.6-.76.89a21.55,21.55,0,0,1-1.62,1.69l0-.51.3.4,0,0H2a12.13,12.13,0,0,0,1,1.49A6.75,6.75,0,0,1,4,16.94v0s0,.05,0,.06Zm0-.08.11-.09,0,.08c-.7-1-1.71-1.7-2.44-2.81l0,0-.33-.36a.39.39,0,0,1,0-.5h0c.52-.58,1.06-1.13,1.62-1.67l.81-.82c.29-.27.46-.55.83-.86l0,.39-.1-.09.28,0a10,10,0,0,0-2.16,1.35,4.39,4.39,0,0,0-.84.94c-.11.17-.21.35-.32.54a1.38,1.38,0,0,1-.54.56l.1-.49A32.86,32.86,0,0,1,3.76,17Z" transform="translate(-0.23 -9.87)"/><path d="M2,13l21,.22c8.73,0,17.46-.24,26.19-.1l13.09.29,6.55.18,3.27.1c1.07,0,2.22.08,3.22,0l.14.38a20.36,20.36,0,0,1-3.31.41l-3.27.23-6.55.3c-4.45,0-8.78,0-13.14.11-8.74.13-17.47-.14-26.2-.3l-4.88-.18L1.57,14Z" transform="translate(-0.23 -9.87)"/></svg>