<svg id="Layer_1" data-name="Layer 1" xmlns="http://www.w3.org/2000/svg" viewBox="0 0 719.16 449.44"><title>fullarrow2</title><path d="M892.11,809.64C899.36,438.11,610,356.72,190.88,396.34l-.41-2.56c467.77-71.74,746.82,89.84,705,415.94Z" transform="translate(-180.42 -360.28)" style="fill:#1d1d1b"/><path d="M214.53,418c-6.09-4.17-10.9-7.12-32.34-22.83,7.38-4.47-2.42-10.4,33.84-33.46l1.1.53c-4,4,1.26.32-26.84,33l3.31,2.92c8,8.38,14.56,10.31,22,19.09Z" transform="translate(-180.42 -360.28)" style="fill:#1d1d1b"/><path d="M199.78,403.14a.07.07,0,0,0,.06,0S199.79,403.13,199.78,403.14Z" transform="translate(-180.42 -360.28)" style="fill:#373735"/><path d="M191.69,395l0,.05S191.69,395,191.69,395Z" transform="translate(-180.42 -360.28)" style="fill:#373735"/><path d="M206,408h0l.44.34Z" transform="translate(-180.42 -360.28)" style="fill:#373735"/><path d="M209.69,373.92l-.11.13A1,1,0,0,0,209.69,373.92Z" transform="translate(-180.42 -360.28)" style="fill:#373735"/><path d="M198.94,386.61a.72.72,0,0,1,.12-.19C199,386.5,198.93,386.57,198.94,386.61Z" transform="translate(-180.42 -360.28)" style="fill:#373735"/><path d="M208.65,411.3l-.13-.2S208.54,411.2,208.65,411.3Z" transform="translate(-180.42 -360.28)" style="fill:#373735"/><path d="M214.53,416.59v0S214.52,416.57,214.53,416.59Z" transform="translate(-180.42 -360.28)" style="fill:#373735"/><path d="M212.6,414.14l-.18-.14C212.49,414.07,212.57,414.15,212.6,414.14Z" transform="translate(-180.42 -360.28)" style="fill:#373735"/><path d="M212.33,413.94l.09.06S212.34,413.93,212.33,413.94Z" transform="translate(-180.42 -360.28)" style="fill:#373735"/><path d="M213,418a3,3,0,0,0,.57.28Z" transform="translate(-180.42 -360.28)" style="fill:#373735"/><path d="M206.7,366.54l0-.06A.12.12,0,0,0,206.7,366.54Z" transform="translate(-180.42 -360.28)" style="fill:#373735"/><path d="M213.58,417.71l.13.1A.57.57,0,0,0,213.58,417.71Z" transform="translate(-180.42 -360.28)" style="fill:#373735"/><path d="M205.22,408.87c-.22-.09-.55-.43-.59-.38C204.83,408.63,205.08,408.87,205.22,408.87Z" transform="translate(-180.42 -360.28)" style="fill:#373735"/><path d="M203.84,371.7l-.11.09Z" transform="translate(-180.42 -360.28)" style="fill:#373735"/><path d="M213.58,417.71l-.14-.12,0,.06Z" transform="translate(-180.42 -360.28)" style="fill:#373735"/><polygon points="6.77 24.56 6.77 24.55 6.79 24.5 6.77 24.56" style="fill:#373735"/><path d="M186.38,386.07l.13-.28A1,1,0,0,0,186.38,386.07Z" transform="translate(-180.42 -360.28)" style="fill:#373735"/><path d="M213.59,418.31l.33.16A2.49,2.49,0,0,0,213.59,418.31Z" transform="translate(-180.42 -360.28)" style="fill:#373735"/><path d="M185.37,399.08l-.12-.07Z" transform="translate(-180.42 -360.28)" style="fill:#373735"/><path d="M198.22,387.4l-.09.09S198.14,387.51,198.22,387.4Z" transform="translate(-180.42 -360.28)" style="fill:#373735"/><polygon points="23.14 17.99 23.15 17.99 23.15 17.99 23.14 17.99" style="fill:#373735"/><path d="M203.27,378.75a1.29,1.29,0,0,0,.29-.48A2,2,0,0,0,203.27,378.75Z" transform="translate(-180.42 -360.28)" style="fill:#373735"/><path d="M204.35,377.37l0,0Z" transform="translate(-180.42 -360.28)" style="fill:#373735"/><polygon points="16.66 25.61 16.66 25.61 16.66 25.61 16.66 25.61" style="fill:#373735"/><path d="M198.5,384.19a.53.53,0,0,0,.12-.1Z" transform="translate(-180.42 -360.28)" style="fill:#373735"/><polygon points="27.26 12.69 27.26 12.69 27.27 12.68 27.26 12.69" style="fill:#373735"/><path d="M212.31,366l2.71-1.89.7-.49.34-.24,0,0a0,0,0,0,1,.07,0l.37.18-.36-2.15-.18.18c-.23.43-.72.93-1.15,1.53l-.19,0a5.58,5.58,0,0,0-.32.52c-.19.16.24-.4-.06-.09l-.05.25c-.09,0-.86,1.18-.43.33l-1.21,1.75c-.27.38,0,.31-.38.71-.1.05.08-.17,0-.18-1,1.18-.79,1.66-1.73,2.78l.06-.11c-.12.22-.41.59-.39.61.26,0,.08-.26.44-.55.09.12-.28.49-.17.54a3.74,3.74,0,0,0-.48.69c-.39.34-.78,1-1.12,1.19a3.53,3.53,0,0,1-.5,1c-.33.23,0-.14-.39.25l0,.12c-.28.33-.26.26-.28.22-.29.36-.14.38-.55.79l.13-.31a9.81,9.81,0,0,1-.74.94s.12-.23.24-.35c-.3.17-.3.46-.42.59.06,0,.33-.32.28-.11-.2.22-.31.56-.52.66l.14-.3a3.54,3.54,0,0,1-.59.85s0,0,0-.06a7.37,7.37,0,0,1-1.07,1.32l.06-.12a4.8,4.8,0,0,1-.27.5c.28-.26.23-.16.32-.14-.43.3-.35.7-.94,1.27,0,0,.05-.23.23-.37a1.7,1.7,0,0,1,.25-.84c-.17.26-.38.55-.38.45l0,.16-.3.37c0,.12.35-.2.12.17s-.28.11-.28.21c-.38.55-.06.31-.5.78a1.07,1.07,0,0,1,.13-.21c-.33.32-.7.9-.92.89a.34.34,0,0,1,.11-.24l0,0c.23-.47-.25.35-.27.13.1,0-.34.52-.54.73h.14c-.39.94-.12-.17-.71.59-.34.52.17-.16,0,.18a6.41,6.41,0,0,0-.8.86c-.14.1-.4.33-.51.28-.2.31-.76.83-.8,1.06.47-.42.31-.56.89-1l0,.23c-.34.39-.71.93-1,1.17.07,0,.11,0,.1,0a12.43,12.43,0,0,1-1,1.34c-.14,0,.14-.3.33-.54a7.86,7.86,0,0,0-.8.88c-.09,0,.31-.36.3-.48l-.48.61h0c0,.19-.39.45-.67.85a6,6,0,0,0-1,1.68c-.14.1-.21.12-.19,0,.23-.17.16-.17.19-.27-.23.31-.65.55-.56.34-.36.5.2-.11,0,.2l-.55.63c.12,0,.33-.24.09.13s-.34.41-.66.77c0-.07-.18,0,.05-.23a1.68,1.68,0,0,0-.44.58c.39-.35-.5.69-.16.48l-.39.35c.08-.09.05-.14.17-.26-.18,0-.25.35-.36.49a4,4,0,0,1-.51.48,1.38,1.38,0,0,1-.46.45c-.14.21,0,.07,0,.15l-.55.62c-.08,0-.26-.07-.2-.18-.16.28.08.2-.25.58.18-.41-.72.69-.44.14a12.68,12.68,0,0,0-1.37,1.49l.39.33c.32.18-.05-.14-.23-.34.1-.11.19-.19.23-.18l-.14.17c1.3,1.08,1.77,1.16,2.31,1.7l-.15-.18a3.74,3.74,0,0,0,.69.44c-.19,0,.25.67.94,1.25.1,0-.3-.43-.12-.4l.46.38s0,0-.1,0c.36.28.58.81.78.8l.26.53-.1-.21a5.41,5.41,0,0,1,.65.5,2.73,2.73,0,0,1,.82.86c0-.11-.16-.38.21-.06-.14.15.7.76.62.82.15.13.38.41.45.36l-.11.07c.16-.1.68.39,1.13.72-.25.1.48.37.53.69.18-.06.79.58,1,.52.34.26.21.35.26.46l.2.08a14.69,14.69,0,0,0,1.08,1l.44.15.09.15c.08,0,.39.22.24,0l.18.14c.11-.11.3.17.72.4.07.08,0,.1-.07.05.19.14.06.15.13.27-.11-.13.86.28.39-.16,0-.08.33.1.5.26l0,.2.31.05a4.72,4.72,0,0,1,.6.55c-.25-.17-.7-.18-.07.28a4.76,4.76,0,0,0-.74-.38c.13.1.18.15-.05.06.51.32.21.05.71.39-.1.08,0,.21.4.56l-.26-.31.08,0c-.11-.1-.13-.14-.13-.2s.65.29.69.41c-.37-.52.94.5.7.18.08,0,.41.25.41.33-.46-.23.21.35.09.37.17.08-.25-.32,0-.2a2.08,2.08,0,0,1,.47.5l-.11-.06.33.33c.1,0-.29-.36.07-.13.07.09.43.33.38.36-.21-.06-.16.13-.46-.08.24.18,1,.76.77.43l.27.22c-.14-.18-.57-.65,0-.21h0l.45.24.13.18s.09,0,.23.12.14.19.1.22c.41.34.42.26.5.28.23.18.3.28.14.24a9.57,9.57,0,0,1,1,1c.44.32-.07-.09.23.06a11.36,11.36,0,0,0,1.91,1.91c0-.31.18.16.42.16-.18-.1.48.71-.1.19l.34.33c.15.31-.6-.52-.37-.06s.78.48,1.14,1c-.24-.07.36.33.14.31a1.34,1.34,0,0,1-.35-.33l0,.1c.74.9.34.15.82.55s.29.49.27.56l0,0,.14-1a2.66,2.66,0,0,0-.48.38,1,1,0,0,1,.54-.31l-.13.92c0-.07,0-.1.09-.07l.1-.75h0a2.4,2.4,0,0,0-1,.77c.75-.37.67-.4,1.11-.63l-.07.5-.21-.35c-.13-.07-.22,0-.56-.43.29.22,0-.07,0-.16,0,.13-.29-.28-.43-.39s.37.13,0-.33l-.22.05c-.14-.19.17,0-.2-.35.25.13.06-.16.54.3-.42-.69-.91-.82-1.38-1.22a1.39,1.39,0,0,0,.13.06,2.45,2.45,0,0,1-.43-.35c-.26-.31.3.16.26.06l-.48-.46v0c-.14-.1-.27-.2-.28-.28.18.09.28.1.41.16l-.59-.39c.1,0-.34-.47,0-.17-.25-.23-.51-.46-.77-.67l0-.16c-.19-.15-.22-.13,0,.08-.24-.26-1.3-.87-1-.94-.69-.43-.87-.66-1.67-1.22.66.37-.58-.65.07-.2-.33-.33-.49-.29-.79-.5s0-.26.28-.06l-.37-.23h0l-.35-.18c-.27-.3,0-.15-.31-.42l-.14,0-.18-.23c.05.11-.16,0-.4-.2h0l-.31-.2c.33.16-.25-.22-.07-.19-.25-.19-.25-.19-.72-.51l0,.12c-.63-.39,0-.11-.43-.47l0,.09c-.6-.63-1.23-.79-1.68-1.25.31.2.3.06.28.08-.46-.3-1.16-.84-1.67-1.1-.09-.23-.1-.29-.53-.68s-.39-.28-.55-.31c-.28-.29-.93-.7-.89-.79-.12,0-.27-.24-.48-.34v-.06l0,.1c-.43-.62-1-.69-1.45-1.3l.11.06-.25-.17c0-.07.1,0,.14,0l-1-.95.16.24a3.6,3.6,0,0,1-.64-.55c.5.29-.34-.33-.34-.46l.25.18c-.31-.28-.31-.28-.35-.19-.41-.35-.15-.37-.57-.66l.25.26c0,.11-.2,0-.36-.19s-.12-.2,0-.08c-.32-.27-.73-.76-.89-.87s0-.17.06-.1c-.78-.65-.31-.32-1.06-.89l.05,0-.28-.16-.26-.38.07.16a6,6,0,0,1-.63-.55l.15,0c-.73-.6-.52-.63-.94-.86,0,0,.08,0,.11,0-.14-.07-.2-.13-.21-.17s.21-.09.26-.29c0,0,.07,0,.08,0l.05-.14.09.06a.78.78,0,0,1-.05-.18s.13,0,.2-.07l.05-.13c.38-.15.61-.64,1-.92l-.15,0c.62-1.14,2-2.1,2.89-3.34l.06.09.32-.56c.28-.21-.07.21,0,.16.39-.55.07-.31.55-.93.31-.26,0,.16-.13.33a17.42,17.42,0,0,1,1.48-1.82s0-.06,0,0c.28-.4.73-.87,1.08-1.28,0,0-.05.14-.13.25a2.16,2.16,0,0,0,.39-.48l-.06.21c.28-.3.73-1,.87-1-.06,0-.11-.05.13-.32.24-.05.57-.79,1-1.18a2.33,2.33,0,0,1-.21.32,2.19,2.19,0,0,0,.45-.67v.1l.8-1.08c.24-.06.79-1,.82-.84.31-.37-.31.26.06-.22.15-.08.33-.44.39-.35l0,.06.26-.34-.09.27c.21-.29.3-.56.26-.62.26-.23.53-.64.7-.71l-.06.12c.59-.77,1.23-1.07,1.59-1.76,0,0,.06,0,0,.08l.39-.46,0,.15.53-.84,0,0c.43-.49,1-1.31,1.57-2l-.06.11c.52-.76.59-.66,1-1.22l0,.07.37-.48,0,.13c.19-.42.91-.91.66-.75a3.3,3.3,0,0,0,.34-.71c.4-.53.16-.09.44-.39s.28-.49.71-1l0,0,.52-.76-.06.12c.33-.62.64-.6.79-1.17.2-.21.5-.68.57-.59l1.27-2c.22,0,.1-.16.47-.53l-.1,0a15.27,15.27,0,0,1,2.37-2.62l1.3-1.3-1.65-.75-.12-.06V361a1.09,1.09,0,0,1-.32,0l-.92-.47c-.16,0-.33-.27-.48-.13l-.46.29-1.34.86-1.77,1.14a8.44,8.44,0,0,1-1.22.94l0,0c-.83.62-1.74,1.22-2.68,1.84,0-.07-.08,0,0-.12a2.39,2.39,0,0,1-.73.52l.27-.1a1.94,1.94,0,0,1-.81.49l-.36.37a.22.22,0,0,1-.1,0l0,.09-.29.06a4.45,4.45,0,0,0-.73.72c-.06,0-.46.24-.18,0l-1.53,1.05.26-.14c.08.06-.34.41-.59.56.26-.28,0-.12-.22-.07s.22-.07.15.05a4.91,4.91,0,0,1-.89.75l.13-.15c-.32.29-.58.29-.91.56s-.52.41-.36.48c-.42.36-.24.05-.39.15a2.65,2.65,0,0,1-.92.64c-.1.36-1.23.85-1.19,1.09l-.41.21s0,.19-.25.45-.29.06-.4.09l-.06.29a68.46,68.46,0,0,0-5.23,4.45c-.64.76-1.43,1.74-2.23,2.57l.07-.11c-.27.28-.51.58-.77.87l.59-.61a4.89,4.89,0,0,1-.39.58c-.42.48-.92,1-1.41,1.64s-.92,1.32-1.32,2c-.31,1-.5.5-.84,1.44,0-.08,0-.12,0-.2a16.69,16.69,0,0,0-.95,2.52c-.15-.19-.26.62-.32.49l0,.12c-.14.19-.36.67-.39.58l-.06.44h-.1c-.22.55-.66,1.62-1,1.72a3.76,3.76,0,0,1-.55.86l-.41.45c-.42.37-.75.58-1.12.88-2.81,1.1.39,2.24,1.45,3.28a7,7,0,0,1,1,.65l.3.35a5.6,5.6,0,0,1,1.09.68s0,0,0,0a6.77,6.77,0,0,0,1,.69c.39.28.73.6.55.6.14-.12.8.61.8.61s4.88,3.7,10.5,7.66,12,8.13,14.75,9.39c.21,0,.7.3.59.1.37.21.44.45.56.42-.45-.37.28-.08-.13-.49l.31.19c.1,0-.45-.23-.31-.27l-.18.08a1.76,1.76,0,0,1-.4-.41,2,2,0,0,1-1-.47l.16.09c-.45-.3-.22-.27-.29-.36l.09.07-.33-.32c.26.23.8.44.55.28-.51-.4.12.13-.29-.12-.26-.16-.14-.19-.1-.23l-.45-.29c.06-.06.29.2.16,0l-.61-.31c0-.23-.67-.34-.82-.66.43.23,0-.08.1-.09l-1-.66c-.08-.09.29.13.14,0s-.34-.17-.44-.23-.74-.5-.64-.59c-.62-.53-.37-.06-1-.55,0-.12.51.33.28.07l-.67-.42a.61.61,0,0,1,.43.16,51.39,51.39,0,0,0-4.05-3.29c-.17-.23.2.06.39.12a26.42,26.42,0,0,1-2.49-2l-.06.05c-1.22-1.15-2.94-2.2-4.42-3.38l.16.18a7.77,7.77,0,0,1-.88-.48c0-.06.28,0-.18-.29.07.08.25.24.17.23-1.2-1.1-4-3.06-6.1-4.7-1.47-1-3-2.15-4.47-3.27l-1.12-.84-.2-.15-.05,0c-.05,0-.07-.06,0-.09l.06,0,0,0s-.06.07,0,0l.14-.15c-.12.13-.2.2-.15.11l0,0c0-.05-.08,0,0,0a1.41,1.41,0,0,1,.21-.23c1.2-.71,1.33-1.83,2.06-2.81.77-2.05,1.59-3.5,2.32-5.19h.1a3,3,0,0,0,.28-.57l0,0c.39-.55.78-1.27,1-1.57l-.07-.08c.22-.34.16-.14.38-.5l0,0,.22-.44c.12.14.73-.89,1-1.1a13.79,13.79,0,0,1,1.5-1.8,15.31,15.31,0,0,0,1.31-1.19c.9-.85,2.1-2.14,3.34-3.13l-.1-.07.31-.27s.06,0,0,0c.33-.1.7-.64,1-.8-.23.06-.23.18-.42.33s-.12-.12.27-.37v0l.2-.25c.08.05.33-.1.41-.06a29.76,29.76,0,0,1,2.8-2.41c-.06.17.78-.64.67-.33.62-.57-.2,0,0-.36.19-.14.36-.33.43-.31s.22,0,.07.1l.44-.36c.05,0,0,.08-.07.12.84-.79,1.7-1.13,2.48-1.81,0-.09-.34.22-.32.13.78-.71.82-.44,1.56-1.08l-.11.19a2.15,2.15,0,0,1,.75-.61c.13,0-.31.32-.49.5.29-.2,1-.74.73-.66a2.74,2.74,0,0,1,.71-.39s-.36.17-.19,0c.51-.29,1.23-.81,1.83-1.19,0,0,.08,0,0,.08C211.59,366.18,211.67,366.41,212.31,366Z" transform="translate(-180.42 -360.28)" style="fill:#373735"/><path d="M196.88,386.1l.2-.21s0,0,0-.16Z" transform="translate(-180.42 -360.28)" style="fill:#373735"/><path d="M205.63,375.67l0-.1A.18.18,0,0,0,205.63,375.67Z" transform="translate(-180.42 -360.28)" style="fill:#373735"/><path d="M207.56,373c-.13.2,0,.05.12,0S207.64,372.94,207.56,373Z" transform="translate(-180.42 -360.28)" style="fill:#373735"/><path d="M192.09,392.15s0-.08,0-.08S192.07,392.15,192.09,392.15Z" transform="translate(-180.42 -360.28)" style="fill:#373735"/><path d="M203.33,407.46l-.06-.06A.17.17,0,0,0,203.33,407.46Z" transform="translate(-180.42 -360.28)" style="fill:#373735"/><path d="M202.47,406.63l-.2-.13A.83.83,0,0,0,202.47,406.63Z" transform="translate(-180.42 -360.28)" style="fill:#373735"/><path d="M195.41,388.19a.55.55,0,0,0,.12-.19A1.54,1.54,0,0,0,195.41,388.19Z" transform="translate(-180.42 -360.28)" style="fill:#373735"/><polygon points="21.64 46.09 21.4 45.91 21.39 45.92 21.64 46.09" style="fill:#373735"/><path d="M203.62,407.7l-.29-.24A1.23,1.23,0,0,0,203.62,407.7Z" transform="translate(-180.42 -360.28)" style="fill:#373735"/><path d="M193.13,398.54l0,0C192.9,398.4,193,398.48,193.13,398.54Z" transform="translate(-180.42 -360.28)" style="fill:#373735"/><polygon points="20.48 45.45 20.45 45.42 20.37 45.39 20.48 45.45" style="fill:#373735"/><path d="M204.63,408.49a.42.42,0,0,0-.13-.07l.13.11Z" transform="translate(-180.42 -360.28)" style="fill:#373735"/><path d="M196.23,401.76c.09,0,.13,0,.14,0S196.24,401.68,196.23,401.76Z" transform="translate(-180.42 -360.28)" style="fill:#373735"/></svg>