<svg xmlns="http://www.w3.org/2000/svg" viewBox="0 0 1024.49 360.43"><title>popup for plotplan</title><g id="Pop_up" data-name="Pop up"><polygon points="1023.04 310.75 1023.04 1.98 1.9 1.98 1.9 310.75 447.89 310.75 449.91 310.75 498.34 357.16 542.74 310.75 544.76 310.75 1023.04 310.75" style="fill:#fbf9f4"/><path d="M1038.39,613.59,1037.1,305l1.45,1.45L783.26,307l-127.64,0L528,306.64c-85.1-.26-170.19-.82-255.28-.85-85.1-.27-170.19.13-255.29.25L18.47,305l.83,308.77-1.89-1.9,224-.41,224,0h.94l.68.65,48.41,46.45-3.26.07,44.47-46.35.65-.68h.94Zm.32.32-480.46,2,1.6-.68-44.33,46.49-1.59,1.67-1.67-1.6L463.8,615.44l1.62.66-224,0-224-.42h-1.9v-1.89L16.36,305v-1.05h1.05c85.1.12,170.19.52,255.29.24,85.09,0,170.18-.58,255.28-.84L655.62,303l127.64,0,255.29.54H1040V305Z" transform="translate(-15.51 -303)"/></g><g id="X"><path d="M980.31,328.07l9.39,7.49,9.3,7.61c3.09,2.54,6.34,4.91,9.2,7.71a83.12,83.12,0,0,1,8.15,8.9l-.19.21a80.21,80.21,0,0,1-9.87-6.95c-3.14-2.48-5.89-5.41-8.81-8.14l-8.73-8.26-8.63-8.36Z" transform="translate(-15.51 -303)"/><path d="M982.27,362l7.5-9.39,7.6-9.29c2.55-3.09,4.91-6.34,7.71-9.2a85.17,85.17,0,0,1,8.9-8.15l.22.19a81.31,81.31,0,0,1-7,9.87c-2.5,3.13-5.41,5.89-8.15,8.81l-8.25,8.73-8.36,8.62Z" transform="translate(-15.51 -303)"/></g></svg>