<svg id="menusvg" xmlns="http://www.w3.org/2000/svg" viewBox="0 0 83.85 83.84"><title>plotplan menu icon</title><g id="Background"><path d="M89.93,48.05a41.93,41.93,0,1,1-41.51-42A41.92,41.92,0,0,1,89.93,48.05Z" transform="translate(-6.07 -6.08)"/><path d="M28.16,83.87c0-.05,0-.05,0,0l0,0-.06-.24h-.31c0-.25-.23-.29-.37-.39a37.53,37.53,0,0,1-4.74-4.17,34.9,34.9,0,0,1-9.61-24.8,36.71,36.71,0,0,1,.41-4.8,34.93,34.93,0,0,1,31-29.29,29.64,29.64,0,0,1,8.36.25A26.92,26.92,0,0,1,68.41,29a27.09,27.09,0,0,1,7,22.28A26.71,26.71,0,0,1,70.07,64.4a27.72,27.72,0,0,1-6.23,6c-.17.12-.42.18-.46.44-.11-.06-.21,0-.31,0h0c.11.05.21.1.3,0a3.18,3.18,0,0,0,.37-.14A33.81,33.81,0,0,0,81.9,43.43a33.56,33.56,0,0,0-10.22-27A33.67,33.67,0,0,0,48.17,7a44.47,44.47,0,0,0-4.75.26A40.82,40.82,0,0,0,18.12,20a40.79,40.79,0,0,0-11,29.8,39.91,39.91,0,0,0,2,11.15,40.85,40.85,0,0,0,15.5,20.72,24.58,24.58,0,0,0,3.17,2c.09.12.2,0,.3,0A2.41,2.41,0,0,1,28.16,83.87Z" transform="translate(-6.07 -6.08)" style="fill:#b39053"/><path d="M29,85.61l-.92-1.38-.07,0-.12-.34a.38.38,0,0,1-.17,0h-.23v-.13a24.28,24.28,0,0,1-3-1.89A41.21,41.21,0,0,1,8.85,61,39.85,39.85,0,0,1,6.79,49.78,41.08,41.08,0,0,1,11,29.68a40.59,40.59,0,0,1,6.88-9.9A41.22,41.22,0,0,1,34.11,9.15,40.73,40.73,0,0,1,43.38,7a44.86,44.86,0,0,1,4.74-.26h.06A34,34,0,0,1,81.27,32.42,34,34,0,0,1,73,64.07a33.5,33.5,0,0,1-9.13,6.87.92.92,0,0,1-.23.09l0,.28-.23-.14a.53.53,0,0,1-.34,0l-.4,0,.24-.46.14-.13.11,0,.07,0a.92.92,0,0,1,.38-.32l.11-.06a27.4,27.4,0,0,0,6.16-5.94,26.58,26.58,0,0,0,5.32-13,26.87,26.87,0,0,0-7-22A26.68,26.68,0,0,0,52.8,20.7a29.29,29.29,0,0,0-8.28-.25A34.67,34.67,0,0,0,13.74,49.5a33.18,33.18,0,0,0-.4,4.77A34.11,34.11,0,0,0,15,65.55a34.55,34.55,0,0,0,7.9,13.31A35.83,35.83,0,0,0,27.57,83l.08,0a.8.8,0,0,1,.34.29h.08l.21,0,.1.32.36.21-.25.14ZM48.12,7.3a41.15,41.15,0,0,0-4.67.27A40.07,40.07,0,0,0,34.3,9.68a40.71,40.71,0,0,0-16,10.49,39.9,39.9,0,0,0-6.78,9.76A40.42,40.42,0,0,0,7.36,49.75a39.92,39.92,0,0,0,2,11.08,40.68,40.68,0,0,0,15,20.28c-.67-.61-1.3-1.23-1.9-1.86a35.1,35.1,0,0,1-9.69-25,35.83,35.83,0,0,1,.41-4.85A35.19,35.19,0,0,1,44.47,19.89a30,30,0,0,1,8.43.25A27.22,27.22,0,0,1,68.62,28.8a27.44,27.44,0,0,1,7.1,22.5A27.11,27.11,0,0,1,70.3,64.57,27.64,27.64,0,0,1,66.09,69a32.43,32.43,0,0,0,6.5-5.34,33.11,33.11,0,0,0,9-20.27,32.7,32.7,0,0,0-.89-10.85A33.44,33.44,0,0,0,48.18,7.3Z" transform="translate(-6.07 -6.08)"/><path d="M32.22,25a.44.44,0,0,0-.32,0l-.15.09A34.07,34.07,0,0,0,14.14,51.68a32.9,32.9,0,0,0,.42,9.5,33.27,33.27,0,0,0,10.66,19A33.48,33.48,0,0,0,50,88.92a40.65,40.65,0,0,0,27.8-12.79c8.77-9.45,12.35-20.65,10.87-33.45a38.42,38.42,0,0,0-4-13.11A40.92,40.92,0,0,0,69.9,13.38c-.13-.09-.26-.24-.46-.2-.08-.17-.19-.26-.39-.16a.06.06,0,0,0,0,0s0,0,0,0l0,.07c.16,0,.24.18.4.15.06.21.25.28.4.39A34.59,34.59,0,0,1,79.68,26a34.15,34.15,0,0,1,3.25,16,33.8,33.8,0,0,1-.77,6.26,34.79,34.79,0,0,1-19.29,24,34,34,0,0,1-11.32,3A30.11,30.11,0,0,1,43,74.92,27.23,27.23,0,0,1,23.33,60.23a26.79,26.79,0,0,1-2.44-18.15,27.19,27.19,0,0,1,7.47-13.92,30.41,30.41,0,0,1,3.21-2.79c.13-.1.4-.12.32-.39.12.08.23,0,.34,0Z" transform="translate(-6.07 -6.08)" style="fill:#d5c391"/><path d="M48.18,89.24a34.36,34.36,0,0,1-33.9-28,33.4,33.4,0,0,1-.42-9.57A34.39,34.39,0,0,1,31.6,24.83l-.17-.63.55.48a.46.46,0,0,1,.24,0h0l.86,0-.83.6-.1-.06h0a.69.69,0,0,1-.32.29l-.07,0a27.66,27.66,0,0,0-3.18,2.76,27,27,0,0,0-7.4,13.78,26.52,26.52,0,0,0,2.41,18A27,27,0,0,0,43.07,74.64a29.82,29.82,0,0,0,8.46.29,34.07,34.07,0,0,0,20.7-9.54,34.16,34.16,0,0,0,9.65-17.26,33.8,33.8,0,0,0,.77-6.21,34.23,34.23,0,0,0-13-28.13l-.1-.07a2.14,2.14,0,0,1-.25-.21h0l0-.1-.13-.07-.34.17v-.17h-.09l.14-.53.16.06-.06-.11a.56.56,0,0,1,.44,0,.63.63,0,0,1,.2.13l.1,0,0,.09a.84.84,0,0,1,.3.16l.08.06a41.45,41.45,0,0,1,14.79,16.3A39,39,0,0,1,88.9,42.65c1.49,12.92-2.19,24.24-11,33.67A40.94,40.94,0,0,1,50,89.2C49.37,89.23,48.77,89.24,48.18,89.24ZM29.25,26.92a33.12,33.12,0,0,0-6.61,5.81,33.54,33.54,0,0,0-8.22,19A33.69,33.69,0,0,0,25.41,80a33.27,33.27,0,0,0,24.53,8.67,39,39,0,0,0,7.84-1.14A39.73,39.73,0,0,0,77.54,75.94c8.63-9.3,12.27-20.48,10.8-33.23a38.33,38.33,0,0,0-4-13A40.69,40.69,0,0,0,72.58,15.59,34.8,34.8,0,0,1,83.22,41.94a33.91,33.91,0,0,1-.79,6.31A35,35,0,0,1,63,72.43a34.12,34.12,0,0,1-11.41,3.06A30.23,30.23,0,0,1,43,75.2,27.53,27.53,0,0,1,23.08,60.36,27.12,27.12,0,0,1,20.61,42,27.46,27.46,0,0,1,28.16,28C28.51,27.61,28.87,27.26,29.25,26.92Z" transform="translate(-6.07 -6.08)"/></g><g id="Circle_to_fill" data-name="Circle to fill"><path id="middle" d="M48.21,22.55A25.1,25.1,0,1,0,73.29,47.79,25.08,25.08,0,0,0,48.21,22.55Z" transform="translate(-6.07 -6.08)" style="fill:#fff"/></g></svg>