<svg id="Layer_1" data-name="Layer 1" xmlns="http://www.w3.org/2000/svg" viewBox="0 0 569.92 567"><title>facebookicon</title>
<style>
.icon {
    fill:#1d1d1b;
}
</style>
<path class="icon" d="M559.64,601.32q-17.79,1.92-35.59,3.25t-35.59,2.33l-6.32.34-.47-7.12c-.9-13.75-1.32-27.49-2-41.23s-.84-27.48-1.27-41.22l-.31-9.73,10.34-.29c11.86-.35,23.73-.37,35.59-.57s23.73-.29,35.59-.14l-10.73,10.73c-.06-12.36.48-24.72.79-37.09.72-12.37.69-24.53,2.43-37.74,3.43-25.74,14.22-51.37,33.23-69.31s44.39-27.15,69.6-29.18a644.28,644.28,0,0,1,75.22.09l5.56.34.32,6.37c1.23,24.58,2.56,49.15,3.36,73.73l.32,9.87L729.3,435l-40.78,1c-6.66.14-12.32.48-17.37,1.94s-8.38,3.49-10.19,6.46c-2.09,2.79-3.18,7.64-3.62,13.21-.15,2.93-.18,5.69-.1,9.09l.19,10.19c.29,13.59.13,27.18.22,40.77L644.78,504.8c6.8,0,13.61-.11,20.41.05l20.41.32c13.61.26,27.21.3,40.82.78l13.66.48-2,12.74-6.56,41.06-7,41-1.37,8-7.33-.36c-23.67-1.17-47.34-2.36-71-4.17l4.61-4.6L646,803.7h-2.4l-3.41-203.58-.07-4.26,4.68-.35c23.67-1.8,47.34-3,71-4.17l-8.7,7.65,3.62-41.44,4.08-41.38,11.63,13.23c-13.61.47-27.21.52-40.82.78l-20.41.31c-6.8.17-13.61,0-20.41,0l-12.95,0,.08-12.91c.09-13.59-.07-27.18.22-40.77l.19-10.19c0-3.4.21-7.44.59-11.29,1-7.79,2.68-16.87,8.88-25.05,6-8.38,15.59-12.77,23.63-14.69s16.2-2,23.1-1.89l40.77,1-10.12,10.12c.8-24.58,2.12-49.15,3.35-73.73l5.88,6.71c-11.7-2-24.13-3.21-36.3-4.28a308.54,308.54,0,0,0-36.58-1.37,108,108,0,0,0-34.95,7.51c-11,4.62-21.14,11.17-29.05,19.91-16.34,17.3-22.83,41.32-23.26,64.55-.11,11.47.89,24.06,1.33,36.4s.85,24.73.79,37.09l0,10.61-10.69.13q-17.79.23-35.59-.14c-11.86-.2-23.73-.23-35.59-.57l10-10c-.43,13.74-.7,27.48-1.27,41.22s-1.06,27.48-2,41.23l-6.78-6.79q17.79,1,35.59,2.33t35.59,3.25Z" transform="translate(-255.04 -256.5)" />
<path class="icon" d="M644.78,810.45c21.34-1.12,42.67-2,64-2.69s42.67-1.72,64-2.23l8-.22a36.63,36.63,0,0,0,6.94-.55,22.9,22.9,0,0,0,17.56-15.48c1.42-3.92,1.22-7.34,1.07-13.23l-1.28-64c-.54-42.67-1.28-85.34-1.42-128l-.35-64,.24-64c.38-42.67,1.51-85.34,2.58-128l.79-32a23.42,23.42,0,0,0-11.06-21,24.23,24.23,0,0,0-12.06-3.62l-16-.4-32-.8q-128-2.44-256,.09l-128,2.75-32,.75-16,.38-4,.09-1.93.06-1.41.12a21,21,0,0,0-18.66,17.64c-.46,2.85-.08,9.29-.08,14.37l.25,16c1.4,85.34,1.69,170.68,2.59,256l.15,128-.46,64-.06,8v2a15.08,15.08,0,0,0,0,1.62,13.39,13.39,0,0,0,.21,2.37,17.92,17.92,0,0,0,3.79,8.59,18.64,18.64,0,0,0,7.71,5.53c3.09,1.28,5.53,1.25,11.74,1.31q128,1.53,256,5l-6.83,6.83,1.08-49.72,1.36-49.72c1-33.15,1.87-66.3,3.19-99.44h2.41c1.32,33.14,2.18,66.29,3.19,99.44l1.36,49.72,1.07,49.72.15,6.63-7,.2q-128,3.62-256,4.94c-2.88,0-4.74.19-8.93,0a40.51,40.51,0,0,1-10.91-2.24,41.94,41.94,0,0,1-18.23-12.55,42.36,42.36,0,0,1-9.34-20.16,37.43,37.43,0,0,1-.57-5.58c-.06-1-.08-1.79-.07-2.39l0-2-.05-8-.47-64,.16-128c.9-85.33,1.18-170.67,2.59-256l.24-16,.13-8a53.31,53.31,0,0,1,.72-9.58A39.45,39.45,0,0,1,285,258.57a36.25,36.25,0,0,1,10.17-2l2.59-.08,2.07,0,4,.1,16,.37,32,.76,128,2.74q128,2.34,256,.1l32-.8,16-.41a36.75,36.75,0,0,1,18.49,4.54c11.48,6.06,19,19.06,19.06,32.09l.79,32c1.06,42.67,2.2,85.34,2.57,128l.25,64-.36,64c-.13,42.66-.87,85.33-1.41,128l-1.29,64c-.08,2.76,0,5-.32,8.63a36.41,36.41,0,0,1-2.31,9.7,37.6,37.6,0,0,1-11.63,15.77,37,37,0,0,1-17.84,7.57,49.65,49.65,0,0,1-9,.28l-8-.22c-21.34-.51-42.67-1.5-64-2.22s-42.66-1.57-64-2.7Z" transform="translate(-255.04 -256.5)"/></svg>