<svg id="Layer_1" data-name="Layer 1" xmlns="http://www.w3.org/2000/svg" viewBox="0 0 584.63 571"><title>instagramicon</title>
<style>
.icon {
    fill:#1d1d1b;
}
</style>
<path class="icon" d="M538.63,305.16c34.31-1.82,68.72-2.86,103.16-3.6,17.08-.66,35.11.18,52.81,4.51a123.15,123.15,0,0,1,25.89,9.53,93.93,93.93,0,0,1,22.72,16.63,96.93,96.93,0,0,1,17.49,22.25,122.06,122.06,0,0,1,10.69,25.81c4.93,17.78,6.52,36.16,6.65,53.19q1.25,51.64.86,103.33L774.17,640c-.55,17-2.59,35-7.76,52A125,125,0,0,1,756,716.6a95.88,95.88,0,0,1-16.58,21,91.7,91.7,0,0,1-21.35,16,129.09,129.09,0,0,1-24.66,9.71c-17,4.69-34.68,6.09-51.76,6.41-34.33.82-68.67,2.65-103.06,3.94-34.39.49-68.83,1.28-103.3,1.51-17.05.49-35.38-.76-53.34-5.27a121.55,121.55,0,0,1-26.27-10A106.92,106.92,0,0,1,315,720a126.21,126.21,0,0,1-10.72-26.22A170.34,170.34,0,0,1,299,666.67a245.25,245.25,0,0,1-1.63-26.45c-.94-34.45-1.28-68.94-1.79-103.41.9-34.47,1.48-68.94,2.64-103.37.29-17,2-35.49,7.15-53.29a123.74,123.74,0,0,1,10.89-25.82,97.24,97.24,0,0,1,17.67-22.2,94,94,0,0,1,22.84-16.51,122.67,122.67,0,0,1,25.93-9.35c17.71-4.15,35.68-5,52.77-4.4,17.21.24,34.42.87,51.62,1.41s34.37,1.07,51.53,1.88v2.35c-17.15,1.3-34.27,2.34-51.38,3.36S453.06,313,436,313.76c-17.17.56-33.71,2.61-49.17,7.35A107.32,107.32,0,0,0,365,330.66a83.14,83.14,0,0,0-17.94,14.57,77.92,77.92,0,0,0-13.41,18.58,108.56,108.56,0,0,0-8,21.92,149.15,149.15,0,0,0-3.82,23.66,229.72,229.72,0,0,0-.77,25c.17,34.17-.24,68.3-.33,102.43.48,34.13,1.13,68.25,1.18,102.4a232.21,232.21,0,0,0,.92,24.92,148.23,148.23,0,0,0,3.95,23.46,104.61,104.61,0,0,0,8.18,21.52A84.79,84.79,0,0,0,366,741a108.94,108.94,0,0,0,21.48,8.86c15.21,4.39,31.4,6,48.59,6.48,34.14,1.22,68.3,3,102.52,4.48,34.2.3,68.47,1.14,102.74,1,17.17.36,34-1.14,50.18-5.34s31.09-12.15,42.51-24.23c11.9-11.67,19-26.73,23-42.85,3.72-16.15,4.58-32.76,4-49.95l-1.77-102.64q-1.78-51.24-2.1-102.47a234.75,234.75,0,0,0-1-25,149.74,149.74,0,0,0-4.09-23.71,108.81,108.81,0,0,0-8.22-21.94,78.38,78.38,0,0,0-13.58-18.53,82.73,82.73,0,0,0-18.06-14.44,106.79,106.79,0,0,0-21.85-9.38,154.67,154.67,0,0,0-23.95-5.07,230.67,230.67,0,0,0-25.18-2.17c-34.16-1.72-68.36-3.76-102.64-6.56Z" transform="translate(-247.69 -254.5)"/>
<path class="icon" d="M538.63,256.85c-40.89.84-81.89,1.43-122.59,3.92-40.2,3.39-80,18-106.14,47.32-13.52,14.31-23.06,31-29.45,49.3s-9.38,37.55-10.55,57.33c-.68,40.39-1.22,81.41-2.62,122.09-.21,40.72-1.22,81.73-1.17,122.35.73,20,3.51,39.86,10.13,58.67a135.57,135.57,0,0,0,80.92,82.55c18.78,7.08,38.76,10.54,58.95,11.5,20.28.67,40.84.22,61.24.11l61.28-.48,122.15-5.07c39.35-3.07,77.74-15.66,104-43.5,27.28-26.83,38.83-65.14,40.69-104.16l1.77-122-.84-122c-1-19.73-3.79-38.92-10.1-57.19a134.11,134.11,0,0,0-29.17-49.25c-26-29.32-65.73-44-105.91-47.38C620.52,258.46,579.51,257.8,538.63,256.85Zm0-2.35,61.43.33c20.52-.05,40.94-.41,61.56-.27,20.62.73,41.61,3.5,61.65,10.31a153.11,153.11,0,0,1,76.16,56.93,147.55,147.55,0,0,1,15.38,28.77,187.59,187.59,0,0,1,9.66,31A256.75,256.75,0,0,1,829,413.28c1.35,20.92,1.35,41.2,1.93,61.85l1.39,61.68-.9,61.7c-.45,20.66-.31,40.93-1.49,61.9-1.55,21.12-5.42,42.91-13.47,63.27a157.66,157.66,0,0,1-15,29.46,153.92,153.92,0,0,1-21.08,25.45,148.77,148.77,0,0,1-55.35,34.88c-20.4,7.51-42,10.95-63,11.82-20.88.52-41.21-.07-61.82-.21l-61.59-.69-123-4.54c-20.61-1.66-41.45-5.14-61-12.77a160.71,160.71,0,0,1-28.14-13.91A147,147,0,0,1,302,773.46a144.92,144.92,0,0,1-34.79-52.2c-8.1-19.47-12.25-40.47-14.15-61.23-1.48-20.7-1.9-41-2.88-61.62l-2.47-61.6c.05-20.54-.13-41.1.22-61.65s.12-40.93,1.34-61.82a254.9,254.9,0,0,1,4.26-31.67,186.57,186.57,0,0,1,9.47-30.9A143.32,143.32,0,0,1,278.19,322a151.2,151.2,0,0,1,21.26-24.4,144.93,144.93,0,0,1,54.62-32.56c20-6.81,41-9.59,61.57-10.33,20.62-.14,41,.18,61.55.21Z" transform="translate(-247.69 -254.5)"/>
<path class="icon" d="M538.63,681.18c18.86-.37,37.75-3.91,55-11.44,17.39-7.29,32.87-18.63,45.83-32a139.34,139.34,0,0,0,17-22.09,153.33,153.33,0,0,0,12.21-24.88A138.68,138.68,0,0,0,633.59,441.9a137,137,0,0,0-44-28,133.6,133.6,0,0,0-50.92-9.7c-34.81-.26-69.33,13.52-94.92,37.69a138.23,138.23,0,0,0,39.82,227.88A144.89,144.89,0,0,0,538.63,681.18Zm0,0c-37.86.31-75.54-14.76-103.26-41.12A150,150,0,0,1,479.07,393a150.45,150.45,0,0,1,119.16,0,149.77,149.77,0,0,1,90.62,143.85,150.2,150.2,0,0,1-47,103.17C614.11,666.38,576.47,681.43,538.63,681.18Z" transform="translate(-247.69 -254.5)"/>
<path class="icon" d="M538.63,443.1A99.57,99.57,0,0,1,612,610.22a102.63,102.63,0,0,1-33.2,23.64,100.09,100.09,0,0,1-113.65-23.6A99.73,99.73,0,0,1,538.63,443.1Zm0,0a88.31,88.31,0,0,0-65.1,28.62,88,88,0,1,0,130.21,0,88.33,88.33,0,0,0-65.11-28.6Z" transform="translate(-247.69 -254.5)"/>
<path class="icon" d="M713,411a34.78,34.78,0,0,1-20.79,11.11,36.61,36.61,0,0,1-23.86-4.89,37.57,37.57,0,0,1-15.57-19.59,38.62,38.62,0,0,1,.43-25.61,40.28,40.28,0,0,1,16.87-20.18,36.24,36.24,0,0,1,26.38-4A36.65,36.65,0,0,1,718,362.72a31.49,31.49,0,0,1,5,24h-1.17A37,37,0,0,0,711.58,368a32.18,32.18,0,0,0-17.44-8.54,33.82,33.82,0,0,0-18.59,2.7,28.27,28.27,0,0,0-13.67,13.5,30.07,30.07,0,0,0-1.8,19.8,30.78,30.78,0,0,0,11.51,16.91,31.8,31.8,0,0,0,20.24,6.17,33.69,33.69,0,0,0,20.31-8.33Z" transform="translate(-247.69 -254.5)"/></svg>