<svg id="Layer_1" data-name="Layer 1" xmlns="http://www.w3.org/2000/svg" viewBox="0 0 574.78 571"><title>linkedinicon</title>
<style>
.icon {
    fill:#b39053;
}
</style>
<path class="icon" d="M371.38,266.93q-32.49,1.79-65,3.05a36.89,36.89,0,0,0-26.14,10.41,33.54,33.54,0,0,0-10.19,24.74c1.32,43.2,2.26,86.58,2.94,129.87l.91,65,.44,65q.53,65-.65,129.92l-1.62,65L271.67,776a32.19,32.19,0,0,0,2,12.85,33,33,0,0,0,18.19,18.47,36.55,36.55,0,0,0,13.49,2.73l16.24.44,32.48.89,65,1.06c86.62.93,173.23-.6,259.84-2.73l65-1.64,16.24-.41,8.12-.21c2.66-.07,5.64-.11,7.5-.32a31.68,31.68,0,0,0,21.56-11.3,28.62,28.62,0,0,0,5.59-10.66,34.82,34.82,0,0,0,1-5.88l.08-3.14,0-4.06-.45-32.48-.67-65c-.85-86.61-1.87-173.23-1.54-259.84l.51-65,.25-32.48.08-8.12,0-4-.1-2.8a26.52,26.52,0,0,0-3.3-10.65A29.3,29.3,0,0,0,780.89,278a16.62,16.62,0,0,0-2.88-.63,15.23,15.23,0,0,0-2.94-.34l-1.49-.12-2,0-4.06-.06-16.24-.24-65-1.27c-86.61-2.08-173.23-4.34-259.84-8.39v-2.44c86.61-4.06,173.23-6.32,259.84-8.39l65-1.28,16.24-.24,4.06-.05,2,0,2.57.08a53.79,53.79,0,0,1,10.2,1.39,52.46,52.46,0,0,1,32.82,23.94,50.66,50.66,0,0,1,6.86,20c.17,1.76.25,3.54.35,5.31l.07,4.11.08,8.12.25,32.48.51,65c.33,86.61-.7,173.23-1.54,259.84l-.67,65-.45,32.48,0,4.06c0,1.43-.18,3.34-.28,5a51.14,51.14,0,0,1-2.11,10,48.81,48.81,0,0,1-10.11,17.5A50.73,50.73,0,0,1,777,825.42c-3.55.18-6,0-8.73,0l-8.12-.2-16.24-.41-65-1.65c-86.61-2.13-173.22-3.65-259.84-2.73l-65,1.06-32.48.89-16.24.45a49.9,49.9,0,0,1-18.32-2.73,47.38,47.38,0,0,1-27.5-25.2A48.13,48.13,0,0,1,255.46,776L255,759.8l-1.62-65q-1.09-65-.65-129.92l.44-65,.91-65c.7-43.33,1.58-86.56,3-130a44.78,44.78,0,0,1,15.83-32.74,46.8,46.8,0,0,1,33.49-10.86q32.49,1.31,65,3.06Z" transform="translate(-252.61 -254.5)"/>
<path class="icon" d="M344.3,471.33c26.78-.84,54.48-2.11,82.65-2.78l3.54-.09.1,3.73L434,603.6,436.71,735l.19,9-9.95.72c-27.26,2-54.52,2.7-81.78,3l-12.6.16-.21-13q-.27-17-.09-34c0-11.36.16-22.72.48-34,.41-22.68,1.4-45.19,2.37-67.5L337,566.31l2.18-32.51C340.71,512.39,342.35,491.38,344.3,471.33Zm1.73,1.72c2,23.75,3.59,46.55,5.17,68.95l2.18,33.19,1.83,32.57c1,21.5,2,42.8,2.37,63.92.33,10.58.45,21.12.48,31.66s.09,21.1-.09,31.67l-12.8-12.8c27.26.34,54.52,1.06,81.78,3L417.18,735l2.75-131.41,3.37-131.41,3.65,3.64Z" transform="translate(-252.61 -254.5)"/>
<path class="icon" d="M477,733.67l-3.16-130.74c-1-43.58-2-87.16-2.69-130.74l-.11-6.91,7.18-.16,78.28-1.82,8.68-.2.21,9.09.84,35.9-9.72-9.72,1.13,0-8.62,5.2c17-33.34,55-51.36,90.44-50.29,17.16.19,35.38,2.67,52.15,11.34a79.3,79.3,0,0,1,22.49,17,89,89,0,0,1,15.06,23.25c7.15,16.69,9.7,33.9,10.33,50.57,1,16.7-1.36,33.18-1.51,49.2-1.1,32.26-2.32,64.52-3.9,96.77h-2.44c-1.59-32.25-2.81-64.51-3.91-96.77-.08-16.22-2.27-32.06-4.71-47.47-2.82-15.29-6.62-30.26-13.59-42.68a66.12,66.12,0,0,0-12.31-16.41A65.4,65.4,0,0,0,680.55,487c-12.27-5.73-26.78-8.15-41.72-8.73-14.64-.89-28.71,1.22-41.64,7.07s-24.09,15.51-31,27.35L563.14,518l-5.53-.13-1.13,0-10-.23.22-9.49.84-35.9,8.88,8.89-78.28-1.82,7.07-7.07c-.68,43.58-1.67,87.16-2.69,130.74l-3.16,130.74Z" transform="translate(-252.61 -254.5)"/>
<path class="icon" d="M732.83,736.24l-81.6,2.7-3.8.12-.13-4c-1.14-37.28-2.37-74.56-3.16-111.84-.65-18.62.07-37.59-4.48-53.49-2.18-8-6.29-14.23-11.66-18-5.53-3.61-13.08-4.74-21.08-4.32s-15.5,2.55-20.77,6.51c-5.44,3.77-8.73,10-10.92,17.35-4.22,15-2.72,33-2.72,51.92,0,37.28-1.5,74.56-3.77,111.84l-.57,9.49-8.38-.54q-20.4-1.31-40.8-3.13c-13.6-1.32-27.2-2.63-40.8-4.59v-2.45c13.6-2,27.2-3.27,40.8-4.59s27.2-2.26,40.8-3.13L550.84,735c-2.26-37.28-3.76-74.56-3.76-111.84.4-18.17-.74-38.25,6.49-59,3.71-10.16,10.22-21,20.59-27.57,10.17-6.66,21.79-8.71,32.18-8.69s22.29,1.81,32.2,9c9.73,7.38,15.18,18.43,17.39,28.46,4.59,20.48,2.48,39.32,2.38,57.83-.79,37.28-2,74.56-3.16,111.84l-3.92-3.92,81.6,2.7Z" transform="translate(-252.61 -254.5)"/>
<path class="icon" d="M434,388.9c2.41,12.65-1.86,26.61-10.47,37.52A52.33,52.33,0,0,1,386,445c-14.73,1-29.87-4.91-40.86-15.22a56.52,56.52,0,0,1,.05-81.73c11-10.32,26.15-16.19,40.86-15.17a52.27,52.27,0,0,1,37.49,18.55c8.62,10.91,12.85,24.87,10.46,37.51h-1.22a46.52,46.52,0,0,0-79.48-32.78,46.45,46.45,0,1,0,79.48,32.78Z" transform="translate(-252.61 -254.5)" /></svg>