<?xml version="1.0" encoding="utf-8"?>
<!-- Generator: Adobe Illustrator 24.0.2, SVG Export Plug-In . SVG Version: 6.00 Build 0)  -->
<svg version="1.1" id="Layer_1" xmlns="http://www.w3.org/2000/svg" xmlns:xlink="http://www.w3.org/1999/xlink" x="0px" y="0px"
	 viewBox="0 0 405.4 180.3" style="enable-background:new 0 0 405.4 180.3;" xml:space="preserve">
<style type="text/css">
	.st0{font-family:'Montserrat-Medium';}
	.st1{font-size:76.9398px;}
	.st2{fill:#1D1D1B;}
	.st3{fill:#FBF9F4;}
	.st4{enable-background:new    ;}
</style>
<title>menuoffwhite</title>
<text transform="matrix(1 0 0 1 90.17 112.73)" class="st0 st1">Menu</text>
<path class="st2" d="M403.6,178.8L2.2,180.3H0.5v-1.7L0,2.7V0.5h2.2C35.7,0.4,69.1-0.1,102.5,0h100.3l100.3,0.1l100.3,0.7h2v2
	l-0.7,88.5L403.6,178.8z M403.2,178.4l-1.1-88.3l-0.7-87.4l2,2L303.1,5.4L202.8,5.5H102.5C69.1,5.6,35.6,5.1,2.2,5l2.2-2.2
	L3.9,178.6l-1.7-1.7L403.2,178.4z"/>
<path class="st2" d="M403.6,178.8L2.2,180.3H0.5v-1.7L0,2.7V0.5h2.2C35.7,0.4,69.1-0.1,102.5,0h100.3l100.3,0.1l100.3,0.7h2v2
	l-0.7,88.5L403.6,178.8z M403.2,178.4l-1.1-88.3l-0.7-87.4l2,2L303.1,5.4L202.8,5.5H102.5C69.1,5.6,35.6,5.1,2.2,5l2.2-2.2
	L3.9,178.6l-1.7-1.7L403.2,178.4z"/>
<rect x="2.1" y="2.2" class="st3" width="401.2" height="175.9"/>
<g class="st4">
	<path d="M148.2,112.7l-0.1-39.2l-19.5,32.7h-3.5l-19.5-32.5v39h-7.4V58.9h6.3L127,96.7l22.2-37.9h6.3l0.1,53.9H148.2z"/>
	<path d="M207.3,94.8h-33.1c0.9,7.2,6.7,11.9,14.8,11.9c4.8,0,8.8-1.6,11.8-4.9l4.1,4.8c-3.7,4.3-9.3,6.6-16.1,6.6
		c-13.2,0-21.9-8.7-21.9-20.8c0-12.1,8.7-20.8,20.5-20.8s20.2,8.5,20.2,21C207.5,93.2,207.4,94.1,207.3,94.8z M174.3,89.5h26.2
		c-0.8-6.8-5.9-11.7-13.1-11.7C180.3,77.8,175,82.6,174.3,89.5z"/>
	<path d="M256.4,89.3v23.5H249V90.1c0-8-4-11.9-11-11.9c-7.8,0-12.9,4.7-12.9,13.5v21h-7.4V72h7.1v6.2c3-4.2,8.2-6.5,14.7-6.5
		C249.4,71.6,256.4,77.3,256.4,89.3z"/>
	<path d="M308.1,72v40.8h-7v-6.2c-3,4.2-8.1,6.6-13.8,6.6c-10.5,0-17.5-5.8-17.5-17.8V72h7.4v22.6c0,8,4,12,11,12
		c7.7,0,12.6-4.8,12.6-13.5V72H308.1z"/>
</g>
<path class="st2" d="M403.6,178.8L2.2,180.3H0.5v-1.7L0,2.7V0.5h2.2C35.7,0.4,69.1-0.1,102.5,0h100.3l100.3,0.1l100.3,0.7h2v2
	l-0.7,88.5L403.6,178.8z M403.2,178.4l-1.1-88.3l-0.7-87.4l2,2L303.1,5.4L202.8,5.5H102.5C69.1,5.6,35.6,5.1,2.2,5l2.2-2.2
	L3.9,178.6l-1.7-1.7L403.2,178.4z"/>
<path class="st2" d="M403.6,178.8L2.2,180.3H0.5v-1.7L0,2.7V0.5h2.2C35.7,0.4,69.1-0.1,102.5,0h100.3l100.3,0.1l100.3,0.7h2v2
	l-0.7,88.5L403.6,178.8z M403.2,178.4l-1.1-88.3l-0.7-87.4l2,2L303.1,5.4L202.8,5.5H102.5C69.1,5.6,35.6,5.1,2.2,5l2.2-2.2
	L3.9,178.6l-1.7-1.7L403.2,178.4z"/>
</svg>
