<svg id="Layer_1" data-name="Layer 1" xmlns="http://www.w3.org/2000/svg" viewBox="0 0 964.05 92.06"><title>northstonelogo</title><path d="M204.63,543.54q-14,0-24.19,7.19a38.55,38.55,0,0,0-13.59,17.5,45.81,45.81,0,0,0,0,33.54,38.51,38.51,0,0,0,13.59,17.56q10.14,7.13,24.19,7.13t24.18-7.13a38.17,38.17,0,0,0,13.55-17.56,45.15,45.15,0,0,0,0-33.54,38.21,38.21,0,0,0-13.55-17.5q-10.14-7.2-24.18-7.19m29.26,28.09a36.89,36.89,0,0,1,0,26.75,29.37,29.37,0,0,1-10.48,13.43q-7.86,5.46-18.78,5.46t-18.78-5.46a29.37,29.37,0,0,1-10.48-13.43,36.89,36.89,0,0,1,0-26.75,29,29,0,0,1,10.48-13.38,34.71,34.71,0,0,1,37.56,0,29,29,0,0,1,10.48,13.38" transform="translate(-57.98 -538.97)" style="fill:#373431"/><path d="M289.87,624.85V597.71h21.57l23.85,27.14h12.26l-24.41-27.76a27,27,0,0,0,13.54-7.47A26.67,26.67,0,0,0,344.76,570a22.88,22.88,0,0,0-7.91-18q-7.8-6.85-19.78-6.86h-36.4v79.7Zm27.2-70.5q8.52,0,13.7,4.57a14,14,0,0,1,4.8,11.09h.05a18.66,18.66,0,0,1-18.55,18.56h-27.2V554.35Zm116.11,0v-9.2H374v9.2h25v70.5h9.2v-70.5Zm32.3-9.2v79.7h9.19V585.5h41.24v39.35h9.2v-79.7h-9.2v31.16H474.67V545.15Z" transform="translate(-57.98 -538.97)" style="fill:#373431"/><path d="M204.63,543.54q-14,0-24.19,7.19a38.55,38.55,0,0,0-13.59,17.5,45.81,45.81,0,0,0,0,33.54,38.51,38.51,0,0,0,13.59,17.56q10.14,7.13,24.19,7.13t24.18-7.13a38.17,38.17,0,0,0,13.55-17.56,45.15,45.15,0,0,0,0-33.54,38.21,38.21,0,0,0-13.55-17.5q-10.14-7.2-24.18-7.19m29.26,28.09a36.89,36.89,0,0,1,0,26.75,29.37,29.37,0,0,1-10.48,13.43q-7.86,5.46-18.78,5.46t-18.78-5.46a29.37,29.37,0,0,1-10.48-13.43,36.89,36.89,0,0,1,0-26.75,29,29,0,0,1,10.48-13.38,34.71,34.71,0,0,1,37.56,0,29,29,0,0,1,10.48,13.38" transform="translate(-57.98 -538.97)" style="fill:#373431"/><polygon points="0 85.57 9.2 85.57 9.2 24.83 70.61 90.42 70.61 5.88 61.41 5.88 61.41 67.23 0 1.64 0 85.57" style="fill:#373431"/><path d="M971.86,543.36V626H1022v-9.47H981.4V585.26H1018v-9.54H981.4V552.9H1022v-9.54ZM859.94,539v87h9.54V563l63.68,68V543.36h-9.53V607Z" transform="translate(-57.98 -538.97)" style="fill:#b79e4b"/><path d="M971.86,543.36V626H1022v-9.47H981.4V585.26H1018v-9.54H981.4V552.9H1022v-9.54ZM859.94,539v87h9.54V563l63.68,68V543.36h-9.53V607Z" transform="translate(-57.98 -538.97)" style="fill:#b79e4b"/><path d="M782.09,542q-14.55,0-25.08,7.46a40,40,0,0,0-14.1,18.14,47.66,47.66,0,0,0,0,34.8A40,40,0,0,0,757,620.6q10.51,7.39,25.08,7.4t25.09-7.4a39.65,39.65,0,0,0,14-18.2,46.86,46.86,0,0,0,0-34.8,39.69,39.69,0,0,0-14-18.14Q796.65,542,782.09,542m30.34,29.13a38.16,38.16,0,0,1,0,27.74,30.39,30.39,0,0,1-10.86,13.93q-8.15,5.66-19.48,5.66t-19.47-5.66a30.34,30.34,0,0,1-10.87-13.93,38.3,38.3,0,0,1,0-27.74,30,30,0,0,1,10.87-13.87q8.14-5.73,19.47-5.72t19.48,5.72a30,30,0,0,1,10.86,13.87" transform="translate(-57.98 -538.97)" style="fill:#b79e4b"/><path d="M561,604.53a20.15,20.15,0,0,0,5.31,14.05,28.31,28.31,0,0,0,13,7.74,41.37,41.37,0,0,0,23.34,0,28.25,28.25,0,0,0,13-7.74A20.16,20.16,0,0,0,621,604.53q0-11.38-9-17.16-5.43-3.47-19.88-7-10.75-2.61-14.79-4.8-6.76-3.71-6.77-10.11,0-9.19,11.5-12.66a32.24,32.24,0,0,1,17.92,0q11.51,3.47,11.5,12.66H621a20.29,20.29,0,0,0-5.32-14.05,28.25,28.25,0,0,0-13-7.74,41.37,41.37,0,0,0-23.34,0,28.31,28.31,0,0,0-13,7.74A20.28,20.28,0,0,0,561,565.47q0,11.38,9,17.16,5.43,3.47,19.88,7,10.75,2.67,14.8,4.86,6.76,3.64,6.76,10,0,9.19-11.5,12.66a32.24,32.24,0,0,1-17.92,0q-11.49-3.47-11.5-12.66Zm153.12-51.26v-9.53H652.71v9.53H678.6v73.11h9.53V553.27Z" transform="translate(-57.98 -538.97)" style="fill:#b79e4b"/></svg>