<svg id="Layer_1" data-name="Layer 1" xmlns="http://www.w3.org/2000/svg" viewBox="0 0 715.5 555.26"><title>twittericon</title>
<style>
.icon {
    fill:#b39053;
}
</style>
<path class="icon" d="M278.13,766c16.45,6.53,33,12.5,49.71,18.23q12.53,4.32,25.34,8c4.27,1.21,8.53,2.54,12.85,3.65s8.64,2.24,13,3.35c17.41,4.31,35.14,7.9,53.35,11.67v2.58a227.78,227.78,0,0,1-55.93,3.88c-9.41-.32-18.75-1.49-28.11-2.69q-14-2.24-27.77-5.55a244.32,244.32,0,0,1-52.95-20A441.82,441.82,0,0,1,219.25,760l-37-25.7L226,741.18a267.33,267.33,0,0,0,51.48,2.9A260.44,260.44,0,0,0,328.86,737a263.07,263.07,0,0,0,49.63-16.66,297.47,297.47,0,0,0,46-26.1l1.6,2A267.16,267.16,0,0,1,278.7,760.67" transform="translate(-182.25 -262.37)"/>
<path class="icon" d="M432.36,810.88c50.32-2.29,100.2-12.18,145.69-32.35a354.13,354.13,0,0,0,163.87-144,596.78,596.78,0,0,0,33.87-65,502.73,502.73,0,0,0,25.13-69.29,596.25,596.25,0,0,0,15.46-73.43H819c3.63,25.38,3.17,51.41-.26,77.07a345.78,345.78,0,0,1-19,75.46,316.51,316.51,0,0,1-36.34,69.11,415.66,415.66,0,0,1-50.54,59.36,371.92,371.92,0,0,1-129.93,82.67C534.47,808.1,483,815.3,432.36,813.46Z" transform="translate(-182.25 -262.37)"/>
<path class="icon" d="M304.54,632.67a133.55,133.55,0,0,0,25.86,29.41,138.9,138.9,0,0,0,33.92,21.13A144.17,144.17,0,0,0,404,694l-.05,2.59a129,129,0,0,1-42.86-3.78,133.14,133.14,0,0,1-40.19-17.89,140.42,140.42,0,0,1-54.73-70.07l-6.36-18.37,19.88,3.11" transform="translate(-182.25 -262.37)"/>
<path class="icon" d="M279.63,590.08c-14.72-8.93-19.44-17-29.88-30.57a148.26,148.26,0,0,1-23.93-45.09,150.82,150.82,0,0,1-5.74-24.84c-.4-4.23-1.18-8.42-1.22-12.66l-.11-6.36c0-2.22-.14-3.92,0-6.78l1.15-18.36,15.48,9.16a138.15,138.15,0,0,0,26.87,12.3A133.53,133.53,0,0,0,291.56,473l-4.87,15.22a148.16,148.16,0,0,1-36.26-39.32,154.73,154.73,0,0,1-19.81-48.78,144.77,144.77,0,0,1-3.33-26.05,137.36,137.36,0,0,1,1-26.26,152.62,152.62,0,0,1,15.31-50.64l4.12-8.18,6.8,7.32c18,19.39,38.09,36.49,58.82,52.29,5.34,3.77,10.55,7.68,15.79,11.54,5.41,3.63,10.71,7.42,16.19,10.94s10.92,7.11,16.52,10.43,11.28,6.56,17.06,9.57a439.44,439.44,0,0,0,72.19,30.77c25,8.36,50.91,14.28,77.47,18.87l-.13,2.58c-27.09,1.83-54.54-.55-81.44-6A343.34,343.34,0,0,1,369,410.73c-6.22-3-12.24-6.4-18.37-9.6s-11.9-7-17.86-10.55c-5.78-3.79-11.36-7.89-17-11.82s-10.87-8.55-16.22-12.92c-21.08-17.91-39.31-38.88-55.24-61.12l10.92-.85a118.71,118.71,0,0,0-18.35,45.21,120.77,120.77,0,0,0,1.75,49.21,116.45,116.45,0,0,0,21.26,44.12,125.92,125.92,0,0,0,36.12,32l24.94,14.71-29.81.52A136.37,136.37,0,0,1,257,486.15a134.37,134.37,0,0,1-32.43-12l16.63-9.2c0,1.05.21,3.24.33,4.92l.41,5.35c.24,3.57,1,7.07,1.51,10.6a126.42,126.42,0,0,0,5.66,20.54,122.83,122.83,0,0,0,21.32,36.44,135.25,135.25,0,0,0,31.92,27.3,133.36,133.36,0,0,0,38.91,15.62l55,12.34-54.09,13.72a145.83,145.83,0,0,1-33.47,4.55c-11.26.12-12.79-.3-16-.3" transform="translate(-182.25 -262.37)"/>
<path class="icon" d="M816.38,426.85l-.93-17.42-.05-.95.81-.63A276.68,276.68,0,0,0,881,336.68l5.68,6.74a273.27,273.27,0,0,1-78.84,23.76l-31,4.37,26.74-16.74A128.37,128.37,0,0,0,858.31,283l12.77,10.17A283.3,283.3,0,0,1,782.71,329l-5.56,1.23-4.33-4.41a123.8,123.8,0,0,0-71.12-35.45,154.82,154.82,0,0,0-20-1.3c-6.66.48-13.33.54-19.88,1.82a135.43,135.43,0,0,0-38,12C600.06,315,579.36,334.47,566.51,359a144.17,144.17,0,0,0-13.81,39.5,151.11,151.11,0,0,0-1.59,43.19l-2.52.59c-5.3-14.14-7.35-29.44-7.29-44.88a138.63,138.63,0,0,1,9.1-45.7c11.06-29.68,33.63-54.9,61.51-71.14,28.16-15.85,62.13-21.95,94-15.94s61.2,22.89,82.54,46.52L778.57,308a260.13,260.13,0,0,0,83.6-29.87l20.06-11.3-7.29,21.47a143.76,143.76,0,0,1-64.43,78l-4.23-12.38A268.46,268.46,0,0,0,883,335l14.76-6.11-9.09,12.85a274.29,274.29,0,0,1-70.29,69.06l.75-1.57L819,426.85Z" transform="translate(-182.25 -262.37)"/></svg>