<svg id="Layer_1" data-name="Layer 1" xmlns="http://www.w3.org/2000/svg" viewBox="0 0 695.27 445.26"><title>emailicon</title><path d="M229.06,353.47c42-3.66,83.77-7.92,125.64-12.51s83.7-9.64,125.67-13.76c83.93-8.25,168.28-12.93,253.3-7.49,21.28,1.58,42.54,3.64,64.09,8.25a141.34,141.34,0,0,1,16.3,4.42,49.21,49.21,0,0,1,8.34,3.19c2.83,1.45,5.68,2.43,8.38,4.46,10.79,7.52,17.46,17.56,22.69,27.46,10.24,20.08,15.73,41,20,61.9a607.29,607.29,0,0,1,9.29,63,963.3,963.3,0,0,1,4.35,126.77c-.35,10.59-.94,21.19-1.87,31.78s-2,21.23-3.69,31.87-3.94,21.28-8.47,32.09a48.76,48.76,0,0,1-4.38,8.18,24.11,24.11,0,0,1-8.23,7.9,39.06,39.06,0,0,1-9.5,3.23c-2.78.67-5.45,1.18-8.14,1.7-21.27,3.88-42.18,6.26-63.22,8.65s-42,4.32-63,6c-42.06,3.43-84.15,5.77-126.27,7.68-84.26,3.79-168.57,6-253.36,2.72-21.21-1.07-42.44-2.44-63.88-4.79-10.73-1.2-21.48-2.62-32.59-4.89a116,116,0,0,1-17.33-4.77,47.9,47.9,0,0,1-10.34-5.13,32.81,32.81,0,0,1-3.11-2.36,37.52,37.52,0,0,1-3.58-4,23.85,23.85,0,0,1-3.12-6.78,8.81,8.81,0,0,1-.29-1.18l-.09-.54-.18-1.09c-1.74-11.14-2.82-21.51-3.95-32.14-1-10.59-1.77-21.16-2.52-31.72-1.6-21.11-2.32-42.27-2.93-63.42-1.22-42.28-.89-84.62,1.24-126.85,1.37-21.1,2.64-42.23,6.24-63.14,1.84-10.43,3.8-20.91,7.46-31a58.59,58.59,0,0,1,7.29-14.48C218.42,358.3,223.11,354.31,229.06,353.47Zm.35,3c-4.63.78-8.62,4.09-11.38,8.24a55.19,55.19,0,0,0-6.55,13.74A153.62,153.62,0,0,0,205,408.88a449.79,449.79,0,0,0-2.4,62.63c.91,41.88,5.41,83.65,10.41,125.22,2.55,20.79,5.62,41.51,8.46,62.22q2.21,15.51,4.7,30.95c1.53,10.21,3.14,20.71,5.08,30.27l.18.85.09.43c.05.27.06.22,0-.24A7.42,7.42,0,0,0,230.1,718a2.59,2.59,0,0,0-.89-1.1c-.2-.17.09-.06.09-.06a28,28,0,0,0,3.9,1.51,120.82,120.82,0,0,0,13.19,3.07c9.54,1.76,19.68,2.92,29.86,3.85,20.41,1.82,41.19,2.75,62,3.38,41.63,1.58,83.51,1.71,125.39,1.94s83.84-.27,125.78-1,83.88-2,125.8-3.33c41.78-1.65,84.11-2.31,125.06-6.75,2.49-.34,5-.67,7.37-1.11a30.54,30.54,0,0,0,5.54-1.33c1.49-.46,4.56-4.29,6.45-8.36,4.13-8.4,6.84-18.41,9.12-28.34,4.49-20.06,6.77-40.87,8.09-61.67A683.37,683.37,0,0,0,873,493.54a492.37,492.37,0,0,0-11.63-61.3c-5.44-19.88-12.11-39.74-22.48-56.43-5.09-8.27-11.43-15.61-18.38-19.59-7.12-3.53-16.77-5.75-26.7-7.09-19.85-2.87-40.67-3.58-61.36-4.14-41.49-1.06-83.35-.25-125.2.25l-125.85,1.3C397.37,347,313.06,348.66,229.41,356.48Z" transform="translate(-192.36 -317.37)"/><path d="M217.19,367c51.72,36,103.12,72.22,155.2,107.24,26.16,17.3,52.24,34.71,79.07,50.63,13.4,7.93,26.82,15.84,40.55,22.77,6.86,3.48,13.77,6.75,20.72,9.57s14,5.18,20.35,6.07a29,29,0,0,0,4.25.29,15.24,15.24,0,0,0,1.59-.17,8.52,8.52,0,0,0,1.52-.42,89.88,89.88,0,0,0,9.68-4.32c6.67-3.42,13.36-7.26,20-11.26,13.26-8,26.29-16.63,39.31-25.28,26.1-17.23,51.56-35.55,77.07-53.79,25.34-18.47,50.58-37.13,75.18-56.58,12.36-9.65,24.5-19.57,36.28-29.89,5.87-5.17,11.66-10.45,17-16.11a76.69,76.69,0,0,0,7.56-8.87,20.38,20.38,0,0,0,2.71-5.05c.66-1.72.48-4-1.48-4.92,2.07.59,2.68,3.17,2.15,5.08a21,21,0,0,1-2.21,5.61,78.64,78.64,0,0,1-6.64,9.95c-4.86,6.29-10.2,12.16-15.6,17.95-10.87,11.53-22.4,22.35-34,33.08q-35.13,31.81-72.38,61.09c-24.66,19.73-50.1,38.44-75.93,56.72Q599.69,550,579.38,562.65c-6.81,4.19-13.72,8.26-21,12.09a107.61,107.61,0,0,1-11.82,5.36,28.42,28.42,0,0,1-4.14,1.17,31.74,31.74,0,0,1-4.27.51,42.06,42.06,0,0,1-7.5-.4c-9.26-1.43-17.08-4.34-24.73-7.47s-14.88-6.7-22-10.4c-14.25-7.44-28-15.46-41.43-23.93q-40.17-25.56-78.21-53.7Q288,429.75,217.19,367Z" transform="translate(-192.36 -317.37)"/></svg>