<svg id="Layer_1" data-name="Layer 1" xmlns="http://www.w3.org/2000/svg" viewBox="0 0 852.31 193.14"><title>peellandplogo</title><path d="M316.38,553.91c13.51,0,21.4-8.25,21.4-19v-.35c0-12.38-8.42-19-21.93-19H295v38.39ZM268,490.58h50.18c29.3,0,47,17.76,47,43.42v.36c0,29.06-22.11,44.13-49.66,44.13H295v37.67H268Z" transform="translate(-113.85 -488.43)" style="fill:#1d1d1b"/><path d="M436.22,560.55c-1.58-12.2-8.6-20.45-19.83-20.45-11.05,0-18.25,8.07-20.35,20.45Zm-66.33,8.07v-.35c0-27.45,19.13-50.06,46.5-50.06,31.41,0,45.8,24.94,45.8,52.21,0,2.15-.18,4.66-.35,7.17H396.39c2.63,12.38,11.06,18.84,23,18.84,8.94,0,15.44-2.87,22.81-9.87l15.26,13.82c-8.77,11.12-21.4,17.94-38.42,17.94-28.25,0-49.14-20.28-49.14-49.7" transform="translate(-113.85 -488.43)" style="fill:#1d1d1b"/><path d="M536.76,560.55c-1.58-12.2-8.6-20.45-19.83-20.45-11,0-18.24,8.07-20.35,20.45Zm-66.32,8.07v-.35c0-27.45,19.12-50.06,46.49-50.06,31.41,0,45.8,24.94,45.8,52.21,0,2.15-.18,4.66-.35,7.17H496.93c2.63,12.38,11.06,18.84,23,18.84,9,0,15.44-2.87,22.81-9.87L558,600.38c-8.77,11.12-21.4,17.94-38.42,17.94-28.25,0-49.13-20.28-49.13-49.7" transform="translate(-113.85 -488.43)" style="fill:#1d1d1b"/><rect x="462.92" y="2.15" width="26.67" height="125.58" style="fill:#1d1d1b"/><polygon points="538.4 2.15 565.42 2.15 565.42 102.62 626.66 102.62 626.66 127.73 538.4 127.73 538.4 2.15" style="fill:#1d1d1b"/><path d="M808.59,522v-.36c0-7.18-4.74-11.66-11.59-11.66-7.19,0-11.93,5.2-11.93,12.73v.36c0,5.57,2.11,9.69,7.2,15.61,10.7-4.12,16.32-8.79,16.32-16.68m-1.41,66.2-23.51-24.4c-8.07,4.3-11.41,10.41-11.41,16.51v.35c0,8.79,7.2,14.72,17.2,14.72,6.14,0,12.11-2.7,17.72-7.18M822.27,604c-10,8.43-21.76,14-36,14-23.51,0-41.23-14-41.23-36.24v-.36c0-16,8.42-27.27,23.86-34.45-6-8.61-8.6-16.5-8.6-25.11v-.36c0-17.22,13.51-33,37.2-33,20.88,0,34.57,14,34.57,31.57v.36c0,16.87-10.53,26.73-25.79,32.83l16.31,16.69c4-6.46,8.07-13.82,11.93-21.53l19.83,11.12A232.42,232.42,0,0,1,838.24,586l18.07,18.48-19.82,14.17Z" transform="translate(-113.85 -488.43)" style="fill:#1d1d1b"/><path d="M917.37,553.91c13.52,0,21.41-8.25,21.41-19v-.35c0-12.38-8.42-19-21.93-19H896v38.39ZM869,490.58h50.18c29.3,0,47,17.76,47,43.42v.36c0,29.06-22.1,44.13-49.65,44.13H896v37.67H869Z" transform="translate(-113.85 -488.43)" style="fill:#1d1d1b"/><path d="M267.7,647.34h15c4.23,0,7.55,1.25,9.71,3.37A10.18,10.18,0,0,1,295.2,658v.09c0,5.53-3.32,8.85-8,10.19L296.26,681h-7L281,669.26h-7.41V681H267.7ZM282.27,664c4.23,0,6.92-2.21,6.92-5.62v-.09c0-3.61-2.6-5.58-7-5.58h-8.61V664Z" transform="translate(-113.85 -488.43)" style="fill:#1d1d1b"/><path d="M304.37,647.34h24.95v5.29h-19v8.75h16.87v5.29H310.29v9h19.27V681H304.37Z" transform="translate(-113.85 -488.43)" style="fill:#1d1d1b"/><path d="M350.42,647.11h5.48L370.71,681h-6.25l-3.41-8.12H345.13L341.67,681h-6.05Zm8.46,20.52-5.81-13.46-5.77,13.46Z" transform="translate(-113.85 -488.43)" style="fill:#1d1d1b"/><path d="M378.34,647.34h5.92v28.27H402V681H378.34Z" transform="translate(-113.85 -488.43)" style="fill:#1d1d1b"/><path d="M410.36,647.34h5.91V681h-5.91Z" transform="translate(-113.85 -488.43)" style="fill:#1d1d1b"/><path d="M424.92,676.09l3.55-4.23c3.22,2.79,6.44,4.37,10.63,4.37,3.65,0,6-1.68,6-4.22v-.1c0-2.4-1.35-3.71-7.6-5.15-7.16-1.73-11.2-3.84-11.2-10v-.1c0-5.77,4.81-9.76,11.49-9.76A18.63,18.63,0,0,1,450,651.09l-3.17,4.47a15.29,15.29,0,0,0-9.13-3.46c-3.47,0-5.49,1.78-5.49,4v.1c0,2.59,1.54,3.75,8,5.29,7.12,1.73,10.82,4.27,10.82,9.85v.1c0,6.29-5,10.05-12,10.05A20.74,20.74,0,0,1,424.92,676.09Z" transform="translate(-113.85 -488.43)" style="fill:#1d1d1b"/><path d="M460.15,647.34h5.92V681h-5.92Z" transform="translate(-113.85 -488.43)" style="fill:#1d1d1b"/><path d="M477,647.34h5.48l18,23.27V647.34h5.81V681h-5l-18.55-23.94V681H477Z" transform="translate(-113.85 -488.43)" style="fill:#1d1d1b"/><path d="M515.37,664.26v-.09a17.14,17.14,0,0,1,17.35-17.4c5.87,0,9.48,1.63,12.94,4.56l-3.75,4.47a13.2,13.2,0,0,0-9.42-3.6c-6.21,0-10.92,5.43-10.92,11.87v.1c0,6.92,4.57,12,11.45,12a13.72,13.72,0,0,0,8.12-2.54v-6.3h-8.61V662.2h14.33v14.13a21.45,21.45,0,0,1-14,5.24C522.29,681.57,515.37,674.07,515.37,664.26Z" transform="translate(-113.85 -488.43)" style="fill:#1d1d1b"/><path d="M572.76,647.34H586c7.83,0,12.79,4.47,12.79,11.25v.1c0,7.55-6.06,11.49-13.47,11.49h-6.68V681h-5.91Zm12.79,17.5c4.47,0,7.26-2.5,7.26-6v-.09c0-3.94-2.84-6-7.26-6h-6.88v12.11Z" transform="translate(-113.85 -488.43)" style="fill:#1d1d1b"/><path d="M605.26,664.26v-.09a17.6,17.6,0,0,1,35.19-.1v.1a17.6,17.6,0,0,1-35.19.09Zm29,0v-.09c0-6.54-4.76-12-11.44-12s-11.34,5.34-11.34,11.87v.1c0,6.54,4.76,12,11.44,12S634.24,670.8,634.24,664.26Z" transform="translate(-113.85 -488.43)" style="fill:#1d1d1b"/><path d="M647,676.09l3.56-4.23c3.22,2.79,6.44,4.37,10.62,4.37,3.66,0,6-1.68,6-4.22v-.1c0-2.4-1.34-3.71-7.59-5.15-7.16-1.73-11.2-3.84-11.2-10v-.1c0-5.77,4.81-9.76,11.49-9.76a18.65,18.65,0,0,1,12.21,4.23l-3.17,4.47a15.29,15.29,0,0,0-9.14-3.46c-3.46,0-5.48,1.78-5.48,4v.1c0,2.59,1.54,3.75,8,5.29,7.12,1.73,10.82,4.27,10.82,9.85v.1c0,6.29-5,10.05-12,10.05A20.76,20.76,0,0,1,647,676.09Z" transform="translate(-113.85 -488.43)" style="fill:#1d1d1b"/><path d="M679.23,676.09l3.55-4.23c3.22,2.79,6.44,4.37,10.63,4.37,3.65,0,6-1.68,6-4.22v-.1c0-2.4-1.35-3.71-7.6-5.15-7.16-1.73-11.2-3.84-11.2-10v-.1c0-5.77,4.81-9.76,11.49-9.76a18.63,18.63,0,0,1,12.21,4.23l-3.17,4.47A15.29,15.29,0,0,0,692,652.1c-3.47,0-5.49,1.78-5.49,4v.1c0,2.59,1.54,3.75,8,5.29,7.12,1.73,10.82,4.27,10.82,9.85v.1c0,6.29-4.95,10.05-12,10.05A20.74,20.74,0,0,1,679.23,676.09Z" transform="translate(-113.85 -488.43)" style="fill:#1d1d1b"/><path d="M714.5,647.34h5.92V681H714.5Z" transform="translate(-113.85 -488.43)" style="fill:#1d1d1b"/><path d="M731.33,647.34h15.1c3.84,0,6.87,1.06,8.79,3a7.51,7.51,0,0,1,2.26,5.57v.1a8,8,0,0,1-4.81,7.49c3.94,1.35,6.68,3.61,6.68,8.18v.09c0,6-4.94,9.23-12.44,9.23H731.33Zm13.89,14.19c3.8,0,6.35-1.5,6.35-4.57v-.1c0-2.64-2.12-4.28-5.91-4.28h-8.51v8.95ZM747,675.75c4,0,6.49-1.58,6.49-4.61V671c0-2.84-2.26-4.52-6.92-4.52h-9.37v9.23Z" transform="translate(-113.85 -488.43)" style="fill:#1d1d1b"/><path d="M768.29,647.34h5.92V681h-5.92Z" transform="translate(-113.85 -488.43)" style="fill:#1d1d1b"/><path d="M785.11,647.34H791v28.27h17.7V681H785.11Z" transform="translate(-113.85 -488.43)" style="fill:#1d1d1b"/><path d="M817.12,647.34H823V681h-5.92Z" transform="translate(-113.85 -488.43)" style="fill:#1d1d1b"/><path d="M842.21,652.82H831.54v-5.48h27.31v5.48H848.17V681h-6Z" transform="translate(-113.85 -488.43)" style="fill:#1d1d1b"/><path d="M876.87,667.73,863.5,647.34h7l9.42,14.91,9.52-14.91h6.78l-13.37,20.24V681h-6Z" transform="translate(-113.85 -488.43)" style="fill:#1d1d1b"/><path d="M234.8,490.58V649.47a3.94,3.94,0,0,1-1.79,2.77l-57.75,28.47a3.12,3.12,0,0,1-3,0l-57-28.46a3.43,3.43,0,0,1-1.36-2.77V490.58Zm-32.42,37.6-26.19-3.34v3.45l26.19,3.33Zm-3.74-8.69-3.5-.44a2.18,2.18,0,0,1-2.23,1.34c-1.28,0-2.29-.73-2.29-1.6a1.35,1.35,0,0,1,0-.29l-4.66-.57a2.22,2.22,0,0,1-2.28,1.32c-1.26,0-2.3-.72-2.3-1.61,0-.09.21-.18.22-.28l-5.46-.69v5.91l22.45,2.84Zm-26.19,5.35L145,528.18v3.44l27.43-3.33Zm0-8.17-5.91.7c0,.09-.09.18-.09.27,0,.89-1.1,1.61-2.37,1.61a2.27,2.27,0,0,1-2.31-1.32l-4.68.57a.92.92,0,0,1,0,.29c0,.87-1,1.6-2.31,1.6a2.35,2.35,0,0,1-2.36-1.34l-3.69.44v5.93l23.69-2.84Zm-23.69,16.89v77.18l23.69-2.82V530.73Zm27.43,85.76,26,3.2.19-7.84-26.2-3.25Zm0,3.29v15.86l26.09-3.68,0-9Zm-31.17,0,27.43-3.25v-7.88L145,614.75Zm0,12.22,27.43,3.74V622.74L145,626Zm54.22-101.07-23.07-2.86L176,607.86l23.17,3Z" transform="translate(-113.85 -488.43)" style="fill:#b79e4b"/></svg>