<svg id="Layer_1" data-name="Layer 1" xmlns="http://www.w3.org/2000/svg" viewBox="0 0 500.44 700"><title>phoneicon</title><path d="M338.1,213.43c-15.22,26.22-27.44,55.38-32.34,85.31-2.49,14.92-3.17,30.08-.83,44.35l2.28,10.44,3.59,9.78c3,6.79,6.28,13.72,9.74,20.52,28.17,54.28,56.6,108.38,88.06,160.19,15.62,25.92,31.88,51.73,51.59,74.46,19.45,22.51,42.32,43.83,70.46,52.14,28.92,7.65,60.37,8.87,88.93,1,28.46-7.1,54.19-28.34,57-54.64,2.62-25.94-15.37-52.24-34.74-71.21-20.24-18.53-47.87-31-72.25-29.78-5.85.57-11.54,1.62-15.79,4.07-2.56,1.08-3.47,2.39-6.3,4.2a103.09,103.09,0,0,1-11.17,8.28c-8,5-19.38,10.55-33.47,8.77-14.19-2-23.54-10.37-30.13-17.14-12.85-14.23-20.32-28.61-27.81-42.74-7.18-14-15-29.34-18.92-47.54-1.78-9.2-2.63-19.46-.64-30a70.15,70.15,0,0,1,12.41-28.1C443.3,368,449.3,361.94,455,356.26l8.07-7.86a38.18,38.18,0,0,0,5.43-6.42c13.09-19.66,16.95-50.23,9.74-76.6-6.25-26.75-29.76-47.87-57-60.21a100.26,100.26,0,0,0-43.5-9.53C362.82,196.24,348,202.43,338.1,213.43Zm-2.8-2.06c10.47-12.6,26.18-19.22,42-20.86s31.92,1.28,47.21,5.79c15.22,4.9,30,11.74,43.37,21.53a95.59,95.59,0,0,1,31.77,39.66,120.2,120.2,0,0,1,10.52,50.31c0,17.39-3.63,35.5-13.49,52.12A71.9,71.9,0,0,1,488,371.84c-3.16,3.75-5.42,5.9-8.07,8.76-5.09,5.38-9.76,10.6-13,15.53-6.61,9.85-7.41,17.82-4.73,30.06,2.85,12.05,8.58,24.83,15.56,38.23,6.79,13.2,14.19,26.25,21.68,35.39,3.8,4.34,7.16,6.57,8.6,6.61,1.42.44,5.24-.21,10.26-3.19a70.73,70.73,0,0,0,7.64-5.24c3.61-2.36,8.61-6.33,13.25-8.11,9.58-4.65,19.5-6,29-6.5,38-.21,69.47,18.74,93.05,42.88a135.86,135.86,0,0,1,27.54,42.41c6.54,15.47,10.49,33.89,6.52,51.53-3.58,17.72-14.66,32.87-28.1,42.89a117.4,117.4,0,0,1-44.64,20c-31.47,6.93-63.74,5.51-94.61-1.52a145,145,0,0,1-44.07-20c-13.67-8.58-25.83-18.94-37.63-29.67-23.32-21.78-43.18-46.52-61.79-72-36.33-51.61-64.13-108.24-84.05-167.77-2.55-7.43-4.86-14.93-7.08-22.66l-2.66-12.54-.87-12.53c-.1-16.59,3-32.44,7.29-47.62C306.16,266.45,319.25,238.37,335.3,211.37Z" transform="translate(-289.78 -190)"/><path d="M652.73,660.29c-12.89,16.88-24.19,35.39-30.39,54.92-3,9.7-4.27,19.87-2,28.81,2,8.11,9.83,12.37,18.84,14.14,18.3,2.93,39.77-3.51,53.38-16,6.66-6.39,11.12-14.22,11.69-22.78s-.91-19.21-6.27-22.46c-4.71-4.19-14.85-2.67-22.94,2a65.08,65.08,0,0,0-21.28,20.12c-11.19,16.61-15.9,38.39-14.4,59,1,10.17,3.38,20.86,9.91,28.14s17.44,6.69,26.23,1.89a80.71,80.71,0,0,0,23.88-19.31c6.83-7.68,12.63-16.38,15.9-25.8,3.44-8.82,3.89-20.74-.23-25-2.28-3.59-11.46,2-17.38,9.46-12.36,14.86-19.34,35.11-19.45,54.31.07,9.48,1.94,19.11,6.83,25.62s11.83,9.67,20.8,9.9c17.84.44,37.44-8.61,50.36-21.67,3.08-3.15,6-6.94,6.71-9.63a2.3,2.3,0,0,0,.37-1.48c.24-.49.05-.51.05-.36.33,0,0,0,0,0,.27-.15-.45-.36-1-.58-4.75-2.62-15.8-.89-24.5,2.14C720,811.83,701.07,825,696.45,841.52c-4.21,16,15,33,33.15,38.55,19.12,5.94,41.2,1.21,59.62-8.91l1,1.42c-17.28,12.74-39.94,20.84-62.79,16-11.28-2.4-21.76-8.1-30.56-15.54s-16.52-20.63-13.74-34.16c2.63-13.06,10.7-22.88,19.25-30.71A99.93,99.93,0,0,1,732,790a79.15,79.15,0,0,1,17.37-4.81c6.26-.6,12.93-1.17,20.65,2.29,3.45,1.26,8.35,5.07,10.07,10.09a14.79,14.79,0,0,1,1.29,7.43,17.36,17.36,0,0,1-1.07,6.35c-2.39,7.63-6.51,12.4-10.64,17a91.39,91.39,0,0,1-29.34,20.12c-10.82,4.71-22.84,7.66-35.32,6.89-12.34-.26-26.83-6.74-34.11-18.21-7.57-11.19-9.13-23.9-9-35.6a98.59,98.59,0,0,1,25.53-63.3,49.15,49.15,0,0,1,14.51-11.39,17.13,17.13,0,0,1,5-1.76,13,13,0,0,1,5.8-.56,12,12,0,0,1,6.15,1.62,11.53,11.53,0,0,1,4.94,3.9c5,6.44,5.36,13.46,4.81,19.39a57.47,57.47,0,0,1-4.53,17c-4.49,10.61-11.47,19.65-19.31,27.45a104.11,104.11,0,0,1-26.69,19.69c-5,2.43-10.81,4.35-16.85,3.85-6.17.17-11.82-3.53-15.93-7.6-7.62-9.11-10.39-20.37-11.6-31.25-2-21.82.73-44.5,11.79-64.63a75.35,75.35,0,0,1,23.18-25.41c5-3.19,10.52-6,17-7.15,6.2-1.4,14.17-.82,20.41,3.58,6.41,4.14,10.1,10.92,11.73,17a48.52,48.52,0,0,1,1.79,18.54c-.68,12.93-7.67,25-16.87,32.89-9.13,8.16-20.07,13.1-31.26,16.2-11.24,2.94-23.09,4-35,1.57a33.49,33.49,0,0,1-8.86-2.8,27.13,27.13,0,0,1-8.29-5c-2.82-1.7-4.57-5-6.67-7.55a45.09,45.09,0,0,1-3.54-9.38c-2.12-12.19.56-23.89,4.58-34.28,8.54-20.77,22.26-38.08,37.72-53.1Z" transform="translate(-289.78 -190)"/></svg>