<svg id="Layer_1" data-name="Layer 1" xmlns="http://www.w3.org/2000/svg" viewBox="0 0 906.74 146.19"><title>longarrow</title><path d="M86.63,612.71l221.14-12.52,221.22-11c73.75-3.46,147.46-8.36,221.32-9.13l55.4-.42c18.48.13,36.95.07,55.43.4,37,.77,74,1.35,110.93,5.48l-.16,1.92c-36.8,1.09-73.66,4.37-110.49,6.11-36.84,2.23-73.69,3.94-110.55,5.7-73.71,3.59-147.55,3.5-221.34,5.29L86.71,614.63Z" transform="translate(-86.63 -511.9)" style="fill:#1d1d1b"/><path d="M939.69,511.9c8.76,11.34,17.13,22.91,25.7,34.36s16.82,23.1,25,34.79l3,4.24-3.78,4.59q-7.83,9.5-15.32,19.32a158.62,158.62,0,0,1-16.11,18.59,238.12,238.12,0,0,1-18.63,16.29,142.63,142.63,0,0,1-21.1,14L917,656.8a141.75,141.75,0,0,1,12.14-22.24,236.12,236.12,0,0,1,14.61-20,158.68,158.68,0,0,1,17.12-17.67Q970,588.6,978.8,580l-.81,8.82c-6.92-12.48-13.65-25.08-20.31-37.73s-13.28-25.32-19.62-38.16Z" transform="translate(-86.63 -511.9)" style="fill:#1d1d1b"/></svg>